<?xml version="1.0" encoding="UTF-8" standalone="no"?>
<svg
   xmlns:dc="http://purl.org/dc/elements/1.1/"
   xmlns:cc="http://creativecommons.org/ns#"
   xmlns:rdf="http://www.w3.org/1999/02/22-rdf-syntax-ns#"
   xmlns:svg="http://www.w3.org/2000/svg"
   xmlns="http://www.w3.org/2000/svg"
   xmlns:sodipodi="http://sodipodi.sourceforge.net/DTD/sodipodi-0.dtd"
   xmlns:inkscape="http://www.inkscape.org/namespaces/inkscape"
   width="22.112333mm"
   height="18.132782mm"
   viewBox="0 0 22.112334 18.132782"
   version="1.1"
   id="svg8"
   inkscape:version="1.0.1 (3bc2e813f5, 2020-09-07)"
   sodipodi:docname="LOGO SVG-02-web-icon-square-path.svg"
   inkscape:export-filename="/media/hanif/DATA/Documents/00 PROJECT/9 inspiyouth.id/1 Desain InspiYouth/3 Template Dokumen/header-footer-page.png"
   inkscape:export-xdpi="150"
   inkscape:export-ydpi="150">
  <defs
     id="defs2">
    <rect
       x="55"
       y="5"
       width="57"
       height="12.57691"
       id="rect916" />
  </defs>
  <sodipodi:namedview
     id="base"
     pagecolor="#ffffff"
     bordercolor="#666666"
     borderopacity="1.0"
     inkscape:pageopacity="0.0"
     inkscape:pageshadow="2"
     inkscape:zoom="4.244223"
     inkscape:cx="62.909445"
     inkscape:cy="43.857561"
     inkscape:document-units="mm"
     inkscape:current-layer="layer1"
     inkscape:document-rotation="0"
     showgrid="true"
     borderlayer="true"
     showguides="true"
     inkscape:guide-bbox="true"
     inkscape:snap-text-baseline="true"
     inkscape:snap-bbox="true"
     inkscape:snap-smooth-nodes="true"
     inkscape:snap-nodes="true"
     inkscape:bbox-nodes="true"
     inkscape:snap-page="true"
     inkscape:window-width="1366"
     inkscape:window-height="705"
     inkscape:window-x="-8"
     inkscape:window-y="-8"
     inkscape:window-maximized="1"
     inkscape:snap-object-midpoints="false"
     fit-margin-left="0"
     fit-margin-top="0"
     fit-margin-bottom="0"
     fit-margin-right="0">
    <inkscape:grid
       type="xygrid"
       id="grid843"
       units="mm"
       spacingx="1"
       spacingy="1"
       color="#3f3fff"
       opacity="0.1254902"
       empcolor="#3f3fff"
       empopacity="0.25098039"
       originx="-21"
       originy="2.5150647" />
  </sodipodi:namedview>
  <metadata
     id="metadata5">
    <rdf:RDF>
      <cc:Work
         rdf:about="">
        <dc:format>image/svg+xml</dc:format>
        <dc:type
           rdf:resource="http://purl.org/dc/dcmitype/StillImage" />
        <dc:title></dc:title>
      </cc:Work>
    </rdf:RDF>
  </metadata>
  <g
     inkscape:label="Layer 1"
     inkscape:groupmode="layer"
     id="layer1"
     transform="translate(-21,2.5150648)">
    <g
       aria-label="InspiYouth"
       transform="matrix(0.5445575,0,0,0.5445575,-13.442051,8.5297837)"
       id="text914"
       style="font-style:normal;font-weight:normal;font-size:8.46667px;line-height:1;font-family:sans-serif;text-align:center;text-anchor:middle;white-space:pre;shape-inside:url(#rect916);fill:#ffa91f;fill-opacity:1;stroke:none;stroke-width:1.83635">
      <path
         d="m 64.043643,11.500418 q -0.448734,0 -0.626534,-0.1524 -0.169333,-0.1524 -0.169333,-0.550333 V 6.2849495 q 0.1016,-0.016933 0.296333,-0.042333 0.194733,-0.033867 0.389467,-0.033867 0.423333,0 0.6096,0.1439334 0.186267,0.1439334 0.186267,0.5588003 v 4.5127348 q -0.09313,0.0254 -0.287867,0.0508 -0.194733,0.0254 -0.397933,0.0254 z"
         style="font-style:normal;font-variant:normal;font-weight:800;font-stretch:normal;font-size:8.46667px;font-family:'Baloo 2';-inkscape-font-specification:'Baloo 2 Ultra-Bold';text-align:center;text-anchor:middle;fill:#ffa91f;fill-opacity:1;stroke-width:1.83635"
         id="path880" />
      <path
         d="m 69.767098,11.424218 q -0.09313,0.0254 -0.270934,0.0508 -0.169333,0.0254 -0.372533,0.0254 -0.423334,0 -0.6096,-0.135467 -0.186267,-0.143933 -0.186267,-0.541866 V 8.8249505 q 0,-0.2624668 -0.160867,-0.3810002 -0.1524,-0.127 -0.4064,-0.127 -0.169333,0 -0.321733,0.042333 -0.143934,0.042333 -0.279401,0.1100667 v 2.954868 q -0.09313,0.0254 -0.270933,0.0508 -0.169333,0.0254 -0.372533,0.0254 -0.423334,0 -0.609601,-0.135467 Q 65.72003,11.221018 65.72003,10.823085 V 8.2746169 q 0,-0.2286001 0.09313,-0.3725335 0.1016,-0.1439333 0.270933,-0.2624667 0.287867,-0.2032001 0.719667,-0.3217335 0.440267,-0.127 0.973667,-0.127 0.956734,0 1.473201,0.4233335 0.516467,0.4148668 0.516467,1.1684004 z"
         style="font-style:normal;font-variant:normal;font-weight:800;font-stretch:normal;font-size:8.46667px;font-family:'Baloo 2';-inkscape-font-specification:'Baloo 2 Ultra-Bold';text-align:center;text-anchor:middle;fill:#ffa91f;fill-opacity:1;stroke-width:1.83635"
         id="path882" />
      <path
         d="m 74.127419,10.205018 q 0,0.643467 -0.482601,1.007533 -0.4826,0.364067 -1.4224,0.364067 -0.3556,0 -0.660401,-0.0508 -0.3048,-0.0508 -0.524933,-0.1524 -0.211667,-0.110067 -0.338667,-0.270933 -0.118533,-0.160867 -0.118533,-0.381 0,-0.203201 0.08467,-0.338667 0.08467,-0.143934 0.203201,-0.237067 0.245533,0.135467 0.5588,0.245533 0.321733,0.1016 0.7366,0.1016 0.262467,0 0.397934,-0.0762 0.143933,-0.0762 0.143933,-0.2032 0,-0.118533 -0.1016,-0.186266 -0.1016,-0.067734 -0.338667,-0.1100671 l -0.254,-0.0508 q -0.7366,-0.1439334 -1.100667,-0.4487335 -0.3556,-0.3132668 -0.3556,-0.8890004 0,-0.3132668 0.135466,-0.5672669 0.135467,-0.2540001 0.381001,-0.4233335 0.245533,-0.1693334 0.5842,-0.2624667 0.347133,-0.093133 0.762,-0.093133 0.313267,0 0.5842,0.0508 0.279401,0.042333 0.482601,0.1354667 0.2032,0.093133 0.321733,0.2455335 0.118533,0.1439334 0.118533,0.3471334 0,0.1947334 -0.0762,0.3386668 -0.06773,0.1354668 -0.1778,0.2286001 -0.06773,-0.042333 -0.2032,-0.084667 -0.135466,-0.0508 -0.296333,-0.084667 -0.160867,-0.042333 -0.3302,-0.067733 -0.160867,-0.0254 -0.296334,-0.0254 -0.2794,0 -0.4318,0.067733 -0.1524,0.059267 -0.1524,0.1947334 0,0.093133 0.08467,0.1524001 0.08467,0.059267 0.321733,0.1100667 l 0.262467,0.059267 q 0.8128,0.1862667 1.151467,0.5164669 0.347134,0.3217334 0.347134,0.8382005 z"
         style="font-style:normal;font-variant:normal;font-weight:800;font-stretch:normal;font-size:8.46667px;font-family:'Baloo 2';-inkscape-font-specification:'Baloo 2 Ultra-Bold';text-align:center;text-anchor:middle;fill:#ffa91f;fill-opacity:1;stroke-width:1.83635"
         id="path884" />
      <path
         d="m 76.946809,11.559685 q -0.2032,0 -0.372534,-0.03387 -0.169333,-0.0254 -0.313267,-0.0762 v 1.490134 q -0.09313,0.0254 -0.270933,0.0508 -0.169333,0.0254 -0.372533,0.0254 -0.423334,0 -0.609601,-0.143933 -0.186266,-0.135467 -0.186266,-0.5334 V 8.2153502 q 0,-0.2286001 0.09313,-0.3810001 0.1016,-0.1524001 0.270933,-0.2624668 0.262467,-0.1693334 0.668867,-0.2709334 0.414867,-0.1100667 0.922867,-0.1100667 0.508001,0 0.931334,0.127 0.423334,0.1270001 0.728134,0.3894668 0.3048,0.2624668 0.465667,0.668867 0.169333,0.4064001 0.169333,0.973667 0,0.5418669 -0.160867,0.956734 -0.160867,0.4064 -0.448733,0.6858 -0.287867,0.2794 -0.677334,0.423334 -0.381,0.143933 -0.8382,0.143933 z m -0.220134,-1.134534 q 0.423334,0 0.643467,-0.270933 0.2286,-0.2709338 0.2286,-0.804334 0,-0.5418669 -0.211666,-0.7874003 -0.2032,-0.2455334 -0.609601,-0.2455334 -0.160866,0 -0.296333,0.042333 -0.135467,0.033867 -0.2286,0.084667 v 1.8626677 q 0.1016,0.0508 0.220133,0.08467 0.118534,0.03387 0.254,0.03387 z"
         style="font-style:normal;font-variant:normal;font-weight:800;font-stretch:normal;font-size:8.46667px;font-family:'Baloo 2';-inkscape-font-specification:'Baloo 2 Ultra-Bold';text-align:center;text-anchor:middle;fill:#ffa91f;fill-opacity:1;stroke-width:1.83635"
         id="path886" />
      <path
         d="m 79.808535,7.3771499 q 0.09313,-0.0254 0.262466,-0.0508 0.1778,-0.0254 0.381001,-0.0254 0.423333,0 0.6096,0.1439334 0.186267,0.1354667 0.186267,0.5334002 v 3.4459345 q -0.09313,0.0254 -0.270934,0.0508 -0.169333,0.0254 -0.372533,0.0254 -0.423334,0 -0.609601,-0.135467 -0.186266,-0.143933 -0.186266,-0.541866 z m -0.06773,-1.2022671 q 0,-0.3217335 0.211667,-0.5418669 0.220133,-0.2201334 0.575734,-0.2201334 0.3556,0 0.567266,0.2201334 0.220134,0.2201334 0.220134,0.5418669 0,0.3217334 -0.220134,0.5418668 -0.211666,0.2201335 -0.567266,0.2201335 -0.355601,0 -0.575734,-0.2201335 -0.211667,-0.2201334 -0.211667,-0.5418668 z"
         style="font-style:normal;font-variant:normal;font-weight:800;font-stretch:normal;font-size:8.46667px;font-family:'Baloo 2';-inkscape-font-specification:'Baloo 2 Ultra-Bold';text-align:center;text-anchor:middle;fill:#ffa91f;fill-opacity:1;stroke-width:1.83635"
         id="path888" />
      <path
         d="m 86.378659,6.9030164 q 0,0.1016 -0.05927,0.2709334 -0.0508,0.1608668 -0.220134,0.4826002 -0.160866,0.3132668 -0.4572,0.821267 -0.296333,0.5080002 -0.778933,1.2869339 v 1.6594671 q -0.09313,0.0254 -0.287867,0.0508 -0.186267,0.0254 -0.381,0.0254 -0.440267,0 -0.609601,-0.1524 -0.169333,-0.1524 -0.169333,-0.5334 V 9.7393508 q -0.220133,-0.3132667 -0.474134,-0.7112002 -0.254,-0.4064002 -0.499533,-0.821267 -0.245534,-0.4233335 -0.4572,-0.821267 -0.2032,-0.3979335 -0.321734,-0.7027336 0.110067,-0.1524001 0.296334,-0.2794001 0.194733,-0.1270001 0.474133,-0.1270001 0.3302,0 0.5334,0.1354667 0.211667,0.1354667 0.397934,0.5080002 l 0.745067,1.4986006 h 0.0508 q 0.118533,-0.2624668 0.211667,-0.4910668 0.1016,-0.2286001 0.194733,-0.4572002 0.09313,-0.2370668 0.186267,-0.4826002 0.1016,-0.2455334 0.220133,-0.5503336 0.1524,-0.0762 0.338667,-0.1185334 0.186267,-0.042333 0.3556,-0.042333 0.296334,0 0.499534,0.1608667 0.211666,0.1524001 0.211666,0.4656669 z"
         style="font-style:normal;font-variant:normal;font-weight:800;font-stretch:normal;font-size:8.46667px;font-family:'Baloo 2';-inkscape-font-specification:'Baloo 2 Ultra-Bold';text-align:center;text-anchor:middle;fill:#ffa91f;fill-opacity:1;stroke-width:1.83635"
         id="path890" />
      <path
         d="m 90.798256,9.375284 q 0,0.5080002 -0.160867,0.9144 -0.1524,0.406401 -0.448734,0.694267 -0.287867,0.2794 -0.694267,0.431801 -0.4064,0.1524 -0.9144,0.1524 -0.508,0 -0.9144,-0.143934 -0.406401,-0.1524 -0.702734,-0.4318 -0.287867,-0.287867 -0.448734,-0.694267 -0.1524,-0.4064001 -0.1524,-0.922867 0,-0.4995335 0.160867,-0.9059337 0.160867,-0.4064001 0.448734,-0.6858002 0.296333,-0.2878668 0.702733,-0.4402669 0.4064,-0.1524 0.905934,-0.1524 0.499533,0 0.905934,0.1608667 0.4064,0.1524001 0.694267,0.4402668 0.296333,0.2794001 0.4572,0.6858003 0.160867,0.4064002 0.160867,0.897467 z M 88.579988,8.3169503 q -0.3556,0 -0.550334,0.2794001 -0.194733,0.2709334 -0.194733,0.7789336 0,0.5334002 0.194733,0.804334 0.194734,0.262466 0.550334,0.262466 0.3556,0 0.550334,-0.270933 0.194733,-0.2709334 0.194733,-0.795867 0,-0.5080002 -0.194733,-0.7789336 -0.194734,-0.2794001 -0.550334,-0.2794001 z"
         style="font-style:normal;font-variant:normal;font-weight:800;font-stretch:normal;font-size:8.46667px;font-family:'Baloo 2';-inkscape-font-specification:'Baloo 2 Ultra-Bold';text-align:center;text-anchor:middle;fill:#ffa91f;fill-opacity:1;stroke-width:1.83635"
         id="path892" />
      <path
         d="m 91.500977,7.3348166 q 0.09313,-0.0254 0.262467,-0.0508 0.1778,-0.0254 0.381,-0.0254 0.423333,0 0.6096,0.1439334 0.186267,0.1354667 0.186267,0.5334002 v 1.8626674 q 0,0.3471334 0.169333,0.4995334 0.169333,0.143933 0.491067,0.143933 0.194733,0 0.313267,-0.03387 0.127,-0.03387 0.194733,-0.06773 V 7.3348166 q 0.09313,-0.0254 0.262467,-0.0508 0.1778,-0.0254 0.381,-0.0254 0.423334,0 0.6096,0.1439334 0.186267,0.1354667 0.186267,0.5334002 v 2.6162008 q 0,0.423334 -0.3556,0.635 -0.296334,0.186267 -0.7112,0.279401 -0.406401,0.1016 -0.889001,0.1016 -0.4572,0 -0.846667,-0.1016 -0.381,-0.101601 -0.6604,-0.313267 -0.2794,-0.211667 -0.4318,-0.541867 -0.1524,-0.338667 -0.1524,-0.8128004 z"
         style="font-style:normal;font-variant:normal;font-weight:800;font-stretch:normal;font-size:8.46667px;font-family:'Baloo 2';-inkscape-font-specification:'Baloo 2 Ultra-Bold';text-align:center;text-anchor:middle;fill:#ffa91f;fill-opacity:1;stroke-width:1.83635"
         id="path894" />
      <path
         d="m 97.994902,11.559685 q -0.745067,0 -1.151467,-0.338667 -0.397934,-0.338667 -0.397934,-1.100667 V 6.3611495 q 0.09313,-0.0254 0.262467,-0.0508 0.1778,-0.033867 0.372534,-0.033867 0.414867,0 0.601133,0.1439334 0.186267,0.1439334 0.186267,0.5334002 v 0.4572002 h 1.109134 q 0.0508,0.093133 0.09313,0.2370667 0.0508,0.1354668 0.0508,0.3048002 0,0.2963334 -0.135467,0.4318001 -0.127,0.1270001 -0.347133,0.1270001 h -0.770467 v 1.5070676 q 0,0.220133 0.135467,0.313267 0.143933,0.09313 0.397933,0.09313 0.127,0 0.262467,-0.01693 0.135467,-0.0254 0.237067,-0.05927 0.0762,0.09313 0.127,0.211667 0.05927,0.110067 0.05927,0.270933 0,0.321734 -0.245533,0.524934 -0.237067,0.2032 -0.846667,0.2032 z"
         style="font-style:normal;font-variant:normal;font-weight:800;font-stretch:normal;font-size:8.46667px;font-family:'Baloo 2';-inkscape-font-specification:'Baloo 2 Ultra-Bold';text-align:center;text-anchor:middle;fill:#ffa91f;fill-opacity:1;stroke-width:1.83635"
         id="path896" />
      <path
         d="m 103.85383,11.424218 q -0.0931,0.0254 -0.27093,0.0508 -0.16933,0.0254 -0.37253,0.0254 -0.42334,0 -0.6096,-0.135467 -0.18627,-0.143933 -0.18627,-0.541866 V 8.9434839 q 0,-0.3471335 -0.1778,-0.4826002 -0.16933,-0.1439334 -0.42333,-0.1439334 -0.16934,0 -0.31327,0.042333 -0.13547,0.042333 -0.254,0.1100667 v 2.954868 q -0.0931,0.0254 -0.27093,0.0508 -0.16934,0.0254 -0.37254,0.0254 -0.42333,0 -0.609599,-0.135467 -0.186266,-0.143933 -0.186266,-0.541866 V 5.912416 q 0.09313,-0.0254 0.262465,-0.0508 0.1778,-0.0254 0.381,-0.0254 0.42334,0 0.6096,0.1439333 0.18627,0.1354668 0.18627,0.5334003 v 0.8382003 q 0.16933,-0.067733 0.381,-0.1100667 0.21167,-0.0508 0.4572,-0.0508 0.8382,0 1.30387,0.4233335 0.46566,0.4148668 0.46566,1.2446005 z"
         style="font-style:normal;font-variant:normal;font-weight:800;font-stretch:normal;font-size:8.46667px;font-family:'Baloo 2';-inkscape-font-specification:'Baloo 2 Ultra-Bold';text-align:center;text-anchor:middle;fill:#ffa91f;fill-opacity:1;stroke-width:1.83635"
         id="path898" />
    </g>
    <g
       id="g1036"
       transform="matrix(0.05988127,0,0,0.05988127,22.969904,-4.9163039)"
       style="stroke-width:4.41846"
       inkscape:export-xdpi="300"
       inkscape:export-ydpi="300">
      <linearGradient
         id="SVGID_1_"
         gradientUnits="userSpaceOnUse"
         x1="74.683296"
         y1="285.38489"
         x2="236.6169"
         y2="123.4513">
        <stop
           offset="0"
           style="stop-color:#FFF33B"
           id="stop981" />
        <stop
           offset="0.144"
           style="stop-color:#FFE029"
           id="stop983" />
        <stop
           offset="0.3154"
           style="stop-color:#FFD218"
           id="stop985" />
        <stop
           offset="0.4919"
           style="stop-color:#FEC90F"
           id="stop987" />
        <stop
           offset="0.68"
           style="stop-color:#FDC70C"
           id="stop989" />
        <stop
           offset="0.8165"
           style="stop-color:#F3903F"
           id="stop991" />
        <stop
           offset="1"
           style="stop-color:#E93E3A"
           id="stop993" />
      </linearGradient>
      <path
         class="st1"
         d="m 249,135.8 c -0.7,2.7 -1.5,5.3 -2.3,7.9 -1.9,5.8 -4.1,11.4 -6.5,16.9 -4.9,10.9 -10.9,21.2 -17.8,30.7 -6.3,8.6 -13.4,16.7 -21.2,24 -15.6,14.6 -33.9,26.3 -54,34.3 -2.7,1.1 -5.4,2 -8.1,3 -17.1,5.8 -35.5,8.9 -54.6,8.9 -13,0 -25.7,-1.5 -37.9,-4.2 33.5,-7.6 63.3,-25 86.1,-49.2 1.1,-1.2 2.3,-2.4 3.4,-3.7 7.1,-7.9 13.5,-16.6 19,-25.7 5.3,4.9 10.9,9.4 16.8,13.7 l 1,0.7 1.2,-0.5 c 29.7,-11.7 55.5,-31.2 74.9,-56.8 z"
         id="path996"
         style="fill:url(#SVGID_1_);stroke-width:4.41846" />
      <linearGradient
         id="SVGID_2_"
         gradientUnits="userSpaceOnUse"
         x1="130.371"
         y1="147.6541"
         x2="230.7603"
         y2="47.264801">
        <stop
           offset="0"
           style="stop-color:#FFF33B"
           id="stop998" />
        <stop
           offset="5.948725e-02"
           style="stop-color:#FFE029"
           id="stop1000" />
        <stop
           offset="0.1303"
           style="stop-color:#FFD218"
           id="stop1002" />
        <stop
           offset="0.2032"
           style="stop-color:#FEC90F"
           id="stop1004" />
        <stop
           offset="0.2809"
           style="stop-color:#FDC70C"
           id="stop1006" />
        <stop
           offset="0.6685"
           style="stop-color:#F3903F"
           id="stop1008" />
        <stop
           offset="0.8876"
           style="stop-color:#ED683C"
           id="stop1010" />
        <stop
           offset="1"
           style="stop-color:#E93E3A"
           id="stop1012" />
      </linearGradient>
      <path
         class="st2"
         d="m 255,90.8 c 0,11.3 -1.1,22.3 -3.2,33 l -2.3,3.3 c -19,27.4 -45.2,48.3 -76,60.6 -11,-8 -21,-17.2 -29.7,-27.5 C 131.7,141.4 123.1,120 119.2,96.6 117,83.8 116.3,71 117,58.6 c 12.4,30.1 33,55.3 58.6,73.6 31.9,-12.5 59.1,-34.2 78.3,-62 0.7,6.8 1.1,13.6 1.1,20.6 z"
         id="path1015"
         style="fill:url(#SVGID_2_);stroke-width:4.41846" />
      <linearGradient
         id="SVGID_4_"
         gradientUnits="userSpaceOnUse"
         x1="168.3688"
         y1="90.164001"
         x2="209.86639"
         y2="48.666401">
        <stop
           offset="0"
           style="stop-color:#FFF33B"
           id="stop1017" />
        <stop
           offset="5.948725e-02"
           style="stop-color:#FFE029"
           id="stop1019" />
        <stop
           offset="0.1303"
           style="stop-color:#FFD218"
           id="stop1021" />
        <stop
           offset="0.2032"
           style="stop-color:#FEC90F"
           id="stop1023" />
        <stop
           offset="0.2809"
           style="stop-color:#FDC70C"
           id="stop1025" />
        <stop
           offset="0.6685"
           style="stop-color:#F3903F"
           id="stop1027" />
        <stop
           offset="0.8876"
           style="stop-color:#ED683C"
           id="stop1029" />
        <stop
           offset="1"
           style="stop-color:#E93E3A"
           id="stop1031" />
      </linearGradient>
      <path
         id="circle1034"
         style="fill:url(#SVGID_4_);stroke-width:4.41846"
         d="m 218.40001,69.400002 a 29.299999,29.299999 0 0 1 -29.3,29.299999 29.299999,29.299999 0 0 1 -29.3,-29.299999 29.299999,29.299999 0 0 1 29.3,-29.3 29.299999,29.299999 0 0 1 29.3,29.3 z" />
    </g>
  </g>
  <style
     type="text/css"
     id="style979">
	.st0{fill:#2D2D72;}
	.st1{fill:url(#SVGID_1_);}
	.st2{fill:url(#SVGID_2_);}
	.st3{clip-path:url(#SVGID_4_);fill:url(#SVGID_5_);}
	.st4{clip-path:url(#SVGID_7_);fill:url(#SVGID_8_);}
	.st5{clip-path:url(#SVGID_10_);fill:url(#SVGID_11_);}
	.st6{clip-path:url(#SVGID_13_);fill:url(#SVGID_14_);}
	.st7{fill:url(#SVGID_15_);}
	.st8{fill:url(#SVGID_16_);}
	.st9{fill:url(#SVGID_17_);}
	.st10{fill:#1A1648;}
	.st11{fill:url(#SVGID_18_);}
	.st12{fill:url(#SVGID_19_);}
	.st13{fill:url(#SVGID_20_);}
	.st14{fill:url(#SVGID_21_);}
	.st15{fill:url(#SVGID_22_);}
	.st16{fill:url(#SVGID_23_);}
	.st17{fill:#FFFFFF;}
	.st18{fill:#FBA823;}
	.st19{fill:#D82638;}
	.st20{fill:#207975;}
	.st21{fill:#B4ABC5;}
	.st22{fill:url(#SVGID_24_);}
	.st23{fill:url(#SVGID_25_);}
</style>
</svg>
